<?xml version="1.0" standalone="no"?>
<!DOCTYPE svg PUBLIC "-//W3C//DTD SVG 20010904//EN"
 "http://www.w3.org/TR/2001/REC-SVG-20010904/DTD/svg10.dtd">
<svg version="1.0" xmlns="http://www.w3.org/2000/svg"
 width="924.000000pt" height="925.000000pt" viewBox="0 0 924.000000 925.000000"
 preserveAspectRatio="xMidYMid meet">

<g transform="translate(0.000000,925.000000) scale(0.100000,-0.100000)"
fill="#000000" stroke="none">
<path d="M4501 7534 c-40 -51 -16 -153 43 -182 85 -42 130 99 56 178 -35 38
-71 39 -99 4z"/>
<path d="M4705 7534 c-46 -49 -45 -150 1 -180 37 -25 81 -3 106 54 47 105 -36
202 -107 126z"/>
<path d="M4841 7364 c-41 -34 -58 -91 -40 -129 20 -39 42 -51 75 -40 59 21 93
119 60 170 -21 32 -56 32 -95 -1z"/>
<path d="M4380 7360 c-26 -26 -26 -75 0 -117 44 -73 109 -82 130 -18 15 46 -1
95 -41 130 -37 30 -62 32 -89 5z"/>
<path d="M4579 7237 c-40 -26 -94 -112 -104 -163 -4 -25 -1 -43 10 -61 15 -22
22 -24 58 -20 23 3 61 11 85 18 34 11 50 11 85 0 67 -20 116 -24 132 -11 39
32 -5 141 -89 218 -41 37 -51 42 -94 42 -34 0 -59 -7 -83 -23z"/>
<path d="M4409 6680 c-44 -13 -79 -42 -100 -81 -45 -89 -9 -154 118 -218 73
-36 89 -58 67 -89 -21 -31 -86 -29 -143 3 -23 14 -44 25 -46 25 -9 0 -55 -92
-50 -100 16 -26 94 -53 163 -58 125 -8 204 40 217 132 12 75 -32 130 -140 176
-87 37 -111 79 -59 102 24 11 67 5 125 -17 12 -4 22 5 38 37 l21 43 -20 17
c-21 17 -104 39 -143 37 -12 0 -34 -4 -48 -9z"/>
<path d="M3360 6420 l0 -261 56 3 56 3 2 100 1 100 83 3 82 3 0 49 0 49 -82 3
-82 3 -1 45 0 45 90 5 90 5 0 50 0 50 -147 3 -148 3 0 -261z"/>
<path d="M5700 6420 l0 -261 58 3 57 3 3 103 3 102 85 0 85 0 -3 48 -3 47 -82
3 -83 3 0 49 0 49 88 3 87 3 3 53 3 52 -150 0 -151 0 0 -260z"/>
<path d="M1930 6620 l0 -50 60 0 60 0 0 -205 0 -205 60 0 60 0 2 203 3 202 63
3 63 3 -3 47 -3 47 -182 3 -183 2 0 -50z"/>
<path d="M2340 6415 l0 -255 60 0 60 0 0 100 0 100 80 0 80 0 0 -100 0 -100
60 0 60 0 0 255 0 256 -57 -3 -58 -3 -3 -97 -3 -98 -79 0 -80 0 0 100 0 100
-60 0 -60 0 0 -255z"/>
<path d="M2820 6415 l0 -255 148 0 147 0 -1 47 -1 48 -87 3 -86 3 0 49 0 49
83 3 82 3 0 50 0 50 -82 3 -83 3 0 49 0 50 88 0 87 0 -1 47 0 48 -147 3 -147
3 0 -256z"/>
<path d="M3710 6415 l0 -255 150 0 150 0 0 50 0 50 -90 0 -90 0 0 50 0 49 83
3 82 3 3 53 3 52 -86 0 -86 0 3 48 3 47 88 3 87 3 0 49 0 50 -150 0 -150 0 0
-255z"/>
<path d="M4070 6415 l0 -255 60 0 60 0 0 255 0 255 -60 0 -60 0 0 -255z"/>
<path d="M4660 6620 l0 -49 58 -3 57 -3 3 -202 2 -203 60 0 60 0 0 205 0 205
60 0 60 0 0 30 c0 17 4 30 9 30 4 0 45 -55 90 -123 l81 -123 0 -112 0 -112 60
0 60 0 0 115 0 116 90 134 c50 74 90 137 90 140 0 3 -30 5 -67 5 l-68 0 -49
-75 c-27 -41 -52 -75 -56 -75 -4 0 -29 34 -56 75 l-49 75 -247 0 -248 0 0 -50z"/>
<path d="M6060 6415 l0 -255 145 0 145 0 0 50 0 50 -85 0 -85 0 0 50 0 49 83
3 82 3 0 50 0 50 -82 3 -83 3 0 49 0 50 85 0 85 0 0 50 0 50 -145 0 -145 0 0
-255z"/>
<path d="M6420 6415 l0 -255 150 0 150 0 0 50 0 50 -90 0 -90 0 0 205 0 205
-60 0 -60 0 0 -255z"/>
<path d="M6780 6668 c0 -2 -1 -117 -3 -256 l-2 -252 58 0 57 0 0 255 0 255
-55 0 c-30 0 -55 -1 -55 -2z"/>
<path d="M6970 6415 l0 -255 60 0 59 0 3 152 3 152 98 -152 99 -152 59 0 59 0
0 255 0 255 -60 0 -60 0 -1 -152 c0 -177 13 -180 -115 21 l-82 126 -61 3 -61
3 0 -256z"/>
<path d="M7490 6415 l0 -255 151 0 150 0 -3 48 -3 47 -87 3 -88 3 0 49 0 49
83 3 82 3 3 53 3 52 -85 0 -86 0 0 50 0 50 91 0 90 0 -3 48 -3 47 -147 3 -148
3 0 -256z"/>
<path d="M5460 5883 c-55 -20 -70 -91 -25 -118 14 -8 36 -22 50 -30 47 -29 3
-61 -46 -34 -15 7 -24 7 -35 -2 -34 -28 5 -59 77 -59 45 0 89 34 89 70 0 24
-32 57 -79 82 -40 22 -31 42 15 35 27 -5 36 -2 44 13 14 26 14 27 -21 39 -34
12 -46 12 -69 4z"/>
<path d="M5651 5872 c-35 -19 -71 -72 -71 -104 0 -37 33 -99 61 -113 64 -33
145 -10 173 49 20 42 20 67 2 111 -27 64 -104 91 -165 57z m89 -52 c27 -14 35
-65 16 -95 -44 -67 -134 -14 -105 62 16 43 49 55 89 33z"/>
<path d="M5850 5790 c0 -94 2 -103 25 -125 18 -19 35 -25 70 -25 35 0 52 6 70
25 23 22 25 31 25 125 l0 101 -27 -3 c-28 -3 -28 -3 -31 -90 -3 -92 -14 -115
-52 -103 -17 5 -20 15 -21 68 -3 128 -2 122 -31 125 l-28 3 0 -101z"/>
<path d="M6060 5865 c0 -20 5 -25 25 -25 l25 0 0 -100 0 -100 30 0 29 0 3 98
3 97 28 3 c21 3 27 9 27 28 0 24 -2 24 -85 24 -84 0 -85 0 -85 -25z"/>
<path d="M6250 5765 l0 -125 24 0 c23 0 25 5 28 48 3 47 3 47 38 47 35 0 35 0
38 -47 3 -46 4 -48 33 -48 l30 0 -3 123 -3 122 -27 3 c-27 3 -28 2 -28 -47 l0
-51 -40 0 -40 0 0 50 c0 47 -2 50 -25 50 l-25 0 0 -125z"/>
<path d="M6620 5870 c-6 -11 -26 -59 -44 -107 -19 -49 -37 -96 -41 -105 -6
-15 -2 -18 22 -18 22 0 33 7 41 25 10 21 19 25 52 25 33 0 42 -4 52 -25 8 -18
19 -25 41 -25 24 0 28 3 23 18 -66 178 -92 232 -113 232 -12 0 -27 -9 -33 -20z
m49 -117 c1 -7 -8 -13 -19 -13 -23 0 -25 12 -8 43 11 21 11 21 19 2 4 -11 8
-26 8 -32z"/>
<path d="M6788 5808 c-2 -46 -2 -102 0 -125 3 -38 6 -43 27 -43 21 0 24 5 27
48 3 47 3 47 41 50 32 3 37 7 37 28 0 21 -4 24 -41 24 -36 0 -40 2 -37 23 2
18 10 23 46 25 38 3 43 6 40 25 -3 20 -10 22 -70 25 l-67 3 -3 -83z"/>
<path d="M6958 5884 c-5 -4 -8 -61 -8 -126 l0 -118 30 0 c29 0 30 2 30 43 l1
42 37 -43 c30 -34 44 -42 70 -42 l33 0 -35 44 c-20 23 -36 46 -36 50 0 3 9 15
20 26 25 25 26 71 1 101 -14 18 -31 23 -77 27 -32 2 -62 0 -66 -4z m97 -74 c0
-18 -6 -26 -22 -28 -20 -3 -23 1 -23 28 0 27 3 31 23 28 16 -2 22 -10 22 -28z"/>
<path d="M7167 5883 c-4 -3 -7 -60 -7 -125 l0 -118 30 0 30 0 0 125 c0 124 0
125 -23 125 -13 0 -27 -3 -30 -7z"/>
<path d="M7324 5876 c-65 -29 -96 -99 -70 -160 24 -58 65 -76 169 -75 79 1 90
3 94 20 10 38 92 39 108 2 7 -16 18 -23 37 -23 16 0 28 4 28 10 0 5 -21 62
-46 125 -43 108 -48 116 -72 113 -22 -3 -30 -17 -71 -121 -41 -107 -46 -116
-54 -92 -8 24 -13 26 -43 20 -65 -12 -121 44 -94 95 16 30 48 43 91 36 32 -5
39 -3 44 15 4 12 3 25 -2 29 -16 17 -87 20 -119 6z m254 -134 c-27 -5 -30 1
-17 34 l11 29 13 -30 c12 -27 12 -30 -7 -33z"/>
<path d="M1762 5394 c-65 -79 -148 -277 -198 -476 -46 -183 -71 -353 -87 -593
-7 -92 11 -448 27 -555 13 -90 13 -96 -5 -120 -68 -90 -204 -303 -246 -386
-159 -310 -230 -564 -240 -859 -4 -144 -2 -189 15 -290 52 -302 187 -560 413
-785 86 -87 272 -233 361 -284 27 -16 50 -31 53 -36 2 -4 -18 -63 -45 -130
-87 -213 -250 -664 -250 -691 0 -5 31 -9 68 -9 l68 0 63 178 c76 212 185 496
234 608 l35 81 -66 44 c-462 309 -688 590 -789 976 -26 101 -28 121 -27 303 0
163 4 211 22 295 63 282 195 573 401 881 l98 148 -13 40 c-45 135 -66 478 -45
712 23 249 94 541 183 752 48 115 43 111 154 91 345 -62 788 -325 1087 -645
49 -53 55 -64 36 -64 -19 0 -209 -92 -209 -102 0 -8 14 -6 90 13 144 35 461
87 685 111 266 28 770 -22 1128 -112 26 -7 51 -10 54 -6 6 6 -176 96 -196 96
-6 0 -11 3 -11 6 0 29 205 220 368 343 259 196 619 357 832 373 l45 3 32 -65
c42 -85 116 -310 142 -430 83 -391 88 -789 14 -1062 l-15 -56 64 -94 c258
-376 410 -730 451 -1047 10 -82 9 -95 -3 -99 -8 -3 -34 -24 -57 -48 -40 -41
-41 -42 -47 -19 -3 12 -22 37 -41 54 -67 58 -175 36 -248 -50 -20 -23 -39 -54
-42 -70 -4 -16 -10 -29 -13 -29 -4 0 -20 16 -35 35 -36 45 -95 75 -148 75
-138 0 -262 -160 -328 -425 -70 -281 -140 -747 -191 -1275 -17 -173 -35 -356
-40 -407 -6 -51 -10 -97 -10 -103 0 -6 26 -10 64 -10 l64 0 6 58 c3 31 15 143
26 247 11 105 31 316 45 470 61 671 109 949 194 1132 41 87 75 128 126 153 64
31 112 16 182 -57 29 -31 53 -60 53 -64 0 -5 4 -9 9 -9 5 0 19 28 32 62 15 41
39 79 69 110 41 42 51 48 88 48 58 0 89 -30 117 -115 18 -54 25 -65 30 -50 22
64 43 99 76 130 84 75 170 62 219 -35 36 -74 70 -270 90 -520 20 -250 32 -832
26 -1197 l-7 -363 81 0 80 0 -5 273 c-10 469 -26 976 -36 1122 -11 161 -52
475 -74 572 -29 124 -89 224 -170 282 l-41 29 -13 104 c-15 124 -58 293 -107
425 -75 203 -219 467 -341 626 l-45 58 11 77 c74 529 -2 1157 -185 1524 -55
109 -96 158 -134 158 -46 0 -246 -55 -385 -105 -361 -131 -699 -358 -924 -619
l-70 -82 -130 33 c-361 90 -685 89 -1049 -5 l-112 -29 -69 81 c-211 248 -519
463 -854 596 -144 57 -356 119 -433 127 -49 5 -51 4 -82 -33z"/>
<path d="M1890 5046 c0 -3 29 -95 65 -204 64 -192 142 -373 182 -421 l19 -24
-71 -71 c-124 -125 -250 -337 -243 -412 l3 -37 67 84 c91 115 272 298 367 371
l34 26 -63 118 c-139 261 -360 611 -360 570z"/>
<path d="M5758 5023 c-46 -53 -244 -380 -339 -561 l-54 -102 35 -27 c66 -51
272 -258 347 -350 42 -51 80 -93 85 -93 6 0 8 15 3 38 -20 113 -179 353 -292
442 -27 21 -27 21 -9 48 48 73 131 266 186 430 34 101 60 185 58 188 -3 2 -12
-4 -20 -13z"/>
<path d="M7472 4577 c-63 -231 -196 -396 -357 -446 l-59 -18 56 -17 c165 -48
297 -212 360 -446 l21 -81 24 83 c13 46 41 119 63 163 76 155 160 236 284 276
l70 23 -45 12 c-163 41 -291 193 -359 424 -13 41 -25 83 -29 92 -4 11 -14 -12
-29 -65z m42 -294 c23 -66 62 -120 110 -148 40 -24 40 -24 16 -34 -52 -21 -97
-79 -128 -161 -12 -30 -21 -48 -22 -40 -1 27 -51 124 -78 153 -15 16 -40 35
-55 43 l-28 15 40 27 c51 34 86 81 107 144 8 26 17 48 19 48 2 0 10 -21 19
-47z"/>
<path d="M7966 3936 c-22 -79 -74 -191 -118 -253 -44 -61 -136 -128 -198 -144
-52 -13 -67 -29 -27 -29 43 0 129 -50 186 -108 65 -66 119 -168 150 -281 22
-78 31 -97 31 -64 0 29 43 149 78 219 44 88 124 171 197 206 33 15 68 28 78
28 9 0 17 5 17 10 0 6 -8 10 -18 10 -39 0 -142 62 -189 114 -63 68 -100 138
-138 260 l-31 98 -18 -66z m80 -353 c15 -19 40 -41 57 -48 l31 -13 -32 -16
c-39 -20 -88 -85 -104 -138 l-11 -38 -33 68 c-24 50 -45 77 -74 97 l-40 28 28
17 c42 26 79 75 99 131 l18 49 17 -51 c10 -29 30 -67 44 -86z"/>
<path d="M2575 3359 c-207 -47 -394 -222 -490 -456 -13 -34 -27 -79 -31 -101
-5 -35 -3 -41 22 -61 24 -19 37 -22 77 -17 61 7 123 41 135 75 6 14 18 49 28
76 29 83 95 184 162 246 94 88 138 91 197 11 47 -64 118 -210 150 -309 23 -71
31 -83 60 -97 62 -30 163 6 193 67 11 23 9 38 -18 119 -85 256 -198 402 -340
442 -62 18 -86 18 -145 5z"/>
<path d="M5046 3335 c-174 -61 -333 -225 -417 -427 -42 -101 -46 -138 -20
-162 30 -27 109 -24 163 6 39 21 45 31 75 111 56 152 172 299 259 327 29 10
39 9 60 -4 53 -36 140 -189 193 -341 17 -49 41 -98 52 -107 48 -40 183 -3 203
55 18 49 -65 271 -143 385 -113 167 -252 218 -425 157z"/>
<path d="M3422 2713 c-30 -12 -56 -87 -56 -158 0 -84 23 -135 84 -188 97 -83
234 -74 341 22 l56 50 42 -39 c68 -65 114 -85 201 -85 52 0 85 6 107 18 90 48
140 143 130 247 -9 102 -63 165 -107 125 -22 -20 -25 -56 -9 -104 15 -43 -3
-85 -50 -117 -81 -55 -155 -17 -220 113 -36 73 -68 98 -108 88 -40 -10 -49
-19 -88 -100 -64 -134 -145 -172 -219 -102 -41 39 -53 77 -39 128 18 69 -16
123 -65 102z"/>
</g>
</svg>
